<svg width="40" height="40" viewBox="0 0 40 40" fill="none" xmlns="http://www.w3.org/2000/svg">
<circle cx="20" cy="20" r="20" fill="white"/>
<path d="M15.317 12C10.7242 12 7 15.7242 7 20.317C7 24.9098 10.7242 28.6339 15.317 28.6339C19.9098 28.6339 23.6339 24.9098 23.6339 20.317C23.6339 19.7463 23.5716 19.1896 23.463 18.6536L23.4168 18.4688H15.317V21.2411H20.8616C20.4203 23.8632 18.0639 25.8616 15.317 25.8616C12.2535 25.8616 9.77232 23.3804 9.77232 20.317C9.77232 17.2535 12.2535 14.7723 15.317 14.7723C16.7031 14.7723 17.9668 15.2852 18.9395 16.1261L20.9263 14.1809C19.4477 12.8271 17.4794 12 15.317 12ZM28.2545 15.6964V18.4688H25.4821V20.317H28.2545V23.0893H30.1027V20.317H32.875V18.4688H30.1027V15.6964H28.2545Z" fill="black"/>
</svg>
