<svg width="40" height="40" viewBox="0 0 40 40" fill="none" xmlns="http://www.w3.org/2000/svg">
<circle cx="20" cy="20" r="20" fill="white"/>
<path d="M15.7955 9C12.0475 9 9 12.0475 9 15.7955V25.2045C9 28.9525 12.0475 32 15.7955 32H25.2045C28.9525 32 32 28.9525 32 25.2045V15.7955C32 12.0475 28.9525 9 25.2045 9H15.7955ZM26.7727 13.1818C27.3477 13.1818 27.8182 13.6523 27.8182 14.2273C27.8182 14.8023 27.3477 15.2727 26.7727 15.2727C26.1977 15.2727 25.7273 14.8023 25.7273 14.2273C25.7273 13.6523 26.1977 13.1818 26.7727 13.1818ZM20.5 14.75C23.673 14.75 26.25 17.327 26.25 20.5C26.25 23.673 23.673 26.25 20.5 26.25C17.327 26.25 14.75 23.673 14.75 20.5C14.75 17.327 17.327 14.75 20.5 14.75ZM20.5 15.7955C17.9073 15.7955 15.7955 17.9073 15.7955 20.5C15.7955 23.0927 17.9073 25.2045 20.5 25.2045C23.0927 25.2045 25.2045 23.0927 25.2045 20.5C25.2045 17.9073 23.0927 15.7955 20.5 15.7955Z" fill="black"/>
</svg>
