<svg width="40" height="40" viewBox="0 0 40 40" fill="none" xmlns="http://www.w3.org/2000/svg">
<circle cx="20" cy="20" r="20" fill="white"/>
<path d="M32.5898 12.4609C31.6484 12.8789 30.6367 13.1602 29.5742 13.2891C30.6562 12.6367 31.4922 11.6094 31.8828 10.3828C30.8672 10.9844 29.7422 11.4219 28.5469 11.6562C27.5898 10.6367 26.2266 10 24.7148 10C21.8164 10 19.4648 12.3516 19.4648 15.25C19.4648 15.6602 19.5117 16.0625 19.6016 16.4453C15.2383 16.2266 11.3711 14.1328 8.78125 10.957C8.32812 11.7344 8.07031 12.6367 8.07031 13.6016C8.07031 15.4219 8.99609 17.0273 10.4062 17.9688C9.54297 17.9414 8.73438 17.707 8.02734 17.3125C8.02734 17.3359 8.02734 17.3555 8.02734 17.3789C8.02734 19.9219 9.83594 22.043 12.2383 22.5273C11.7969 22.6484 11.3359 22.7109 10.8555 22.7109C10.5156 22.7109 10.1875 22.6797 9.86719 22.6172C10.5352 24.6992 12.4727 26.2227 14.7695 26.2617C12.9766 27.6719 10.7109 28.5078 8.25 28.5078C7.82422 28.5078 7.41016 28.4844 7 28.4375C9.32031 29.9258 12.082 30.793 15.0469 30.793C24.7031 30.793 29.9844 22.793 29.9844 15.8594C29.9844 15.6289 29.9805 15.4023 29.9688 15.1758C30.9961 14.4414 31.8867 13.5156 32.5898 12.4609Z" fill="black"/>
</svg>
